<?xml version="1.0" encoding="UTF-8" standalone="no"?><!DOCTYPE svg PUBLIC "-//W3C//DTD SVG 1.1//EN" "http://www.w3.org/Graphics/SVG/1.1/DTD/svg11.dtd"><svg width="100%" height="100%" viewBox="0 0 778 246" version="1.1" xmlns="http://www.w3.org/2000/svg" xmlns:xlink="http://www.w3.org/1999/xlink" xml:space="preserve" xmlns:serif="http://www.serif.com/" style="fill-rule:evenodd;clip-rule:evenodd;stroke-linejoin:round;stroke-miterlimit:1.41421;"><g id="Logos"><path d="M250.332,173.061c0,15.68 9.717,22.504 22.506,27.172l13.87,4.962c8.574,3.267 13.464,6.191 13.464,13.637c0,8.55 -7.677,12.42 -18.611,12.42c-11.221,0 -21.699,-4.037 -30.42,-11.028l0.001,16.952c6.707,4.655 17.609,8.342 30.42,8.342c19.508,0 34.373,-9.598 34.373,-26.98c0,-13.81 -6.877,-22.214 -21.851,-27.627l-15.457,-5.579c-7.982,-2.813 -12.52,-5.605 -12.52,-12.604c0,-7.736 7.224,-11.448 16.891,-11.448c11.231,0 19.966,4.178 27.95,10.25l0,-16.632c-7.68,-4.946 -17.509,-7.733 -28.293,-7.733c-17.601,0 -32.322,9.119 -32.322,25.896" style="fill:#185f7d;fill-rule:nonzero;"/><rect x="358.077" y="148.788" width="16.269" height="95.274" style="fill:#185f7d;"/><rect x="64.835" y="148.788" width="16.288" height="95.271" style="fill:#185f7d;"/><path d="M421.915,148.787l0,95.271l36.747,0c28.286,0 46.574,-18.627 46.574,-47.661c0,-28.994 -18.288,-47.61 -46.574,-47.61l-36.747,0Zm16.241,14.271l19.897,0c20.122,0 30.884,12.845 30.884,33.339c0,20.351 -10.762,33.246 -30.884,33.246l-19.897,0l0,-66.585Z" style="fill:#185f7d;fill-rule:nonzero;"/><path d="M539.613,148.787l0,95.271l58.117,0l0,-14.416l-42.196,0l0,-29.554l37.845,0l0,-14.108l-37.845,0l0,-22.925l42.196,0l0,-14.268l-58.117,0Z" style="fill:#185f7d;fill-rule:nonzero;"/><path d="M646.337,148.787l0,95.269l16.213,0l0,-38.653l11.542,0l33.379,38.653l18.448,0l-34.478,-39.253c15.158,-2.345 22.268,-11.506 22.268,-27.455c0,-18.653 -12.812,-28.561 -32.626,-28.561l-34.746,0Zm16.213,13.976l18.222,0c10.789,0 16.872,5.749 16.872,14.585c0,8.83 -6.083,14.582 -16.872,14.582l-18.222,0l0,-29.167Z" style="fill:#185f7d;fill-rule:nonzero;"/><path d="M220.024,26.396c0,15.927 9.758,22.862 22.665,27.594l14.006,5.043c8.656,3.312 13.532,6.307 13.532,13.874c0,8.675 -7.707,12.615 -18.727,12.615c-11.331,0 -21.876,-4.1 -30.684,-11.192l0,17.183c6.763,4.732 17.78,8.516 30.684,8.516c19.677,-0.001 34.626,-9.776 34.626,-27.433c0,-14.034 -6.924,-22.545 -22.034,-28.066l-15.579,-5.677c-8.028,-2.837 -12.593,-5.677 -12.593,-12.77c0,-7.885 7.241,-11.667 17,-11.667c11.331,0 20.141,4.251 28.168,10.403l0,-16.869c-7.71,-5.046 -17.626,-7.886 -28.485,-7.886c-17.786,0 -32.579,9.303 -32.579,26.333" style="fill:#185f7d;fill-rule:nonzero;"/><path d="M711.901,26.332c0,15.922 9.758,22.862 22.662,27.595l14.007,5.043c8.655,3.309 13.534,6.31 13.534,13.873c0,8.672 -7.71,12.615 -18.727,12.615c-11.331,0 -21.876,-4.099 -30.69,-11.195l0,17.185c6.769,4.73 17.78,8.517 30.69,8.517c19.672,0 34.624,-9.779 34.624,-27.436c0,-14.032 -6.928,-22.549 -22.035,-28.066l-15.579,-5.674c-8.028,-2.84 -12.59,-5.677 -12.59,-12.773c0,-7.883 7.241,-11.667 16.991,-11.667c11.337,0 20.151,4.256 28.177,10.405l0,-16.868c-7.713,-5.049 -17.626,-7.886 -28.485,-7.886c-17.786,0 -32.579,9.303 -32.579,26.332" style="fill:#185f7d;fill-rule:nonzero;"/><path d="M613.05,26.332c0,15.922 9.758,22.862 22.665,27.595l14.006,5.043c8.656,3.309 13.535,6.31 13.535,13.873c0,8.672 -7.716,12.615 -18.727,12.615c-11.332,0 -21.876,-4.099 -30.69,-11.195l0,17.185c6.763,4.73 17.783,8.517 30.69,8.517c19.672,0 34.623,-9.779 34.623,-27.436c0,-14.032 -6.93,-22.549 -22.034,-28.066l-15.582,-5.674c-8.025,-2.84 -12.584,-5.677 -12.584,-12.773c0,-7.883 7.235,-11.667 16.988,-11.667c11.337,0 20.15,4.256 28.177,10.405l0,-16.868c-7.713,-5.049 -17.629,-7.886 -28.483,-7.886c-17.788,0 -32.584,9.303 -32.584,26.332" style="fill:#185f7d;fill-rule:nonzero;"/><path d="M517.198,1.643l0,96.809l58.534,0l0,-14.647l-42.496,0l0,-30.033l38.114,0l0,-14.335l-38.114,0l0,-23.295l42.496,0l0,-14.499l-58.534,0Z" style="fill:#185f7d;fill-rule:nonzero;"/><path d="M0,1.643l0,96.811l36.986,0c20.144,0 32.734,-9.62 32.734,-27.75c0,-10.25 -6.607,-19.236 -15.738,-22.231c7.083,-2.526 12.59,-10.095 12.59,-20.501c-0.001,-17.341 -12.59,-26.329 -32.737,-26.329l-33.835,0Zm15.896,14.195l17.783,0c11.176,0 17.158,3.938 17.158,13.081c0,9.145 -5.982,13.405 -17.158,13.405l-17.783,0l0,-26.486Zm0,40.042l20.773,0c11.02,0 16.997,5.363 16.997,14.191c0,8.672 -5.977,14.189 -16.997,14.189l-20.773,0l0,-28.38Z" style="fill:#185f7d;fill-rule:nonzero;"/><rect x="328.244" y="1.639" width="16.366" height="96.811" style="fill:#185f7d;"/><path d="M165.903,1.64l0,56.446c0,18.606 -7.869,27.278 -22.348,27.278c-14.479,0 -22.348,-8.672 -22.348,-27.278l0,-56.446l-16.369,0l0,58.186c0,26.641 15.738,40.203 38.717,40.203c23.134,0 38.717,-13.562 38.717,-40.05l0,-58.339l-16.369,0Z" style="fill:#185f7d;fill-rule:nonzero;"/><path d="M457.732,1.639l0,61.898l-66.425,-63.404l0,98.318l15.769,0l0,-62.971l66.38,64.479l0,-98.32l-15.724,0Z" style="fill:#185f7d;fill-rule:nonzero;"/><path d="M127.765,244.051l15.652,0l0,-61.966l65.893,63.441l0,-96.745l-15.612,0l0,60.907l-65.933,-62.379l0,96.742Z" style="fill:#185f7d;fill-rule:nonzero;"/></g></svg>