<?xml version="1.0" encoding="UTF-8" standalone="no"?><!DOCTYPE svg PUBLIC "-//W3C//DTD SVG 1.1//EN" "http://www.w3.org/Graphics/SVG/1.1/DTD/svg11.dtd"><svg width="100%" height="100%" viewBox="0 0 190 28" version="1.1" xmlns="http://www.w3.org/2000/svg" xmlns:xlink="http://www.w3.org/1999/xlink" xml:space="preserve" xmlns:serif="http://www.serif.com/" style="fill-rule:evenodd;clip-rule:evenodd;stroke-linejoin:round;stroke-miterlimit:1.41421;"><g><path d="M24.196,1.211l9.018,0c3.325,0 8.313,0.961 8.313,6.61c0,3.07 -2.066,5.212 -5.137,5.765l0,0.077c3.511,0.33 5.911,2.695 5.911,5.873c0,6.501 -5.837,7.466 -9.086,7.466l-9.018,0l-0.001,-25.791m5.174,10.419l2.105,0c2.18,0 4.879,-0.48 4.879,-3.144c0,-2.99 -2.626,-3.21 -4.989,-3.21l-1.995,0l0,6.354m0,11.308l2.438,0c2.402,0 5.319,-0.593 5.319,-3.586c0,-3.364 -2.735,-3.882 -5.319,-3.882l-2.438,0l0,7.468Z" style="fill:#231f20;fill-rule:nonzero;"/><path d="M20.025,26.632c-1.885,0.445 -3.918,0.81 -5.875,0.81c-8.348,-0.002 -14.15,-4.175 -14.15,-12.895c0,-8.827 5.393,-13.779 14.15,-13.779c1.699,0 3.955,0.334 5.836,1.073l-0.369,4.36c-1.956,-1.111 -3.729,-1.37 -5.579,-1.37c-5.318,0 -8.645,4.063 -8.645,9.349c0,5.249 3.251,9.197 8.757,9.197c2.032,0 4.435,-0.438 5.654,-1.069l0.221,4.324" style="fill:#231f20;fill-rule:nonzero;"/><path d="M64.896,26.632c-1.881,0.445 -3.918,0.81 -5.873,0.81c-8.351,0 -14.153,-4.175 -14.153,-12.895c0,-8.827 5.396,-13.779 14.153,-13.779c1.699,0 3.955,0.334 5.836,1.073l-0.371,4.36c-1.957,-1.111 -3.729,-1.37 -5.575,-1.37c-5.321,0 -8.648,4.063 -8.648,9.349c0,5.249 3.25,9.197 8.758,9.197c2.032,0 4.432,-0.438 5.654,-1.069l0.219,4.324" style="fill:#231f20;fill-rule:nonzero;"/><path d="M71.045,22.982l1.762,0c0.603,0 1.253,-0.705 1.253,-1.258l0,-15.167c0,-0.555 -0.65,-1.355 -1.253,-1.355l-1.962,0l0,-4.418l8.991,0c0.852,0 1.354,0.705 1.504,3.414c2.46,-2.308 5.827,-3.817 9.791,-3.817c3.669,0 6.833,1.458 6.833,6.577l0,14.767c0,0.603 0.649,1.258 1.254,1.258l1.405,0l0,4.165l-13.005,0l0,-4.165l3.014,0l0,-13.509c0,-2.61 -1.009,-3.364 -3.467,-3.364c-2.108,0 -4.067,0.45 -5.777,1.003l0,15.871l3.063,0l0,4.166l-13.406,0l0,-4.168" style="fill:#231f20;fill-rule:nonzero;"/><path d="M109.213,15.347c0.301,5.224 2.614,7.637 6.83,7.637c3.264,0 4.416,-1.158 5.773,-2.864l4.168,0l0,4.819c-2.155,1.308 -5.023,2.561 -10.545,2.561c-9.14,0 -13.709,-5.121 -13.709,-13.404c0,-8.488 5.271,-13.711 13.205,-13.711c7.883,0 12,4.018 12,12.955c0,0.904 -0.099,1.761 -0.099,2.01l-17.623,-0.003m0.103,-4.164l10.289,0c-0.25,-4.623 -1.654,-6.43 -4.668,-6.43c-3.06,0 -5.072,1.905 -5.621,6.43Z" style="fill:#231f20;fill-rule:nonzero;"/><path d="M147.529,10.023l-5.221,17.125l-6.279,0l-5.926,-20.537c-0.299,-0.806 -0.902,-1.409 -1.605,-1.409l-0.953,0l0,-4.418l11.648,0l0,4.418l-2.309,0l3.465,13.158l0.1,0l5.123,-17.576l5.621,0l5.127,17.576l0.099,0l2.66,-9.844c0.651,-2.308 0.403,-3.314 -1.656,-3.314l-0.754,0l0,-4.418l10.996,0l0,4.418l-0.853,0c-0.805,0 -1.607,0.451 -1.908,1.559l-5.975,20.387l-6.275,0l-5.023,-17.123l-0.102,-0.002" style="fill:#231f20;fill-rule:nonzero;"/><path d="M168.418,26.044l0,-5.926l4.219,0c0.602,1.856 2.963,3.009 5.271,3.009c2.813,0 4.521,-1.199 4.521,-3.109c0,-1.959 -1.158,-2.762 -5.371,-3.363c-5.677,-0.805 -8.338,-2.763 -8.338,-7.937c0,-5.222 4.016,-8.233 10.743,-8.233c4.117,0 6.933,0.453 9.043,1.153l0,5.827l-4.067,0c-0.857,-1.555 -2.463,-2.563 -5.226,-2.563c-2.71,0 -4.218,1.104 -4.218,2.767c0,1.605 0.956,2.559 5.424,3.213c6.376,0.95 8.991,2.712 8.991,8.031c0,5.175 -3.47,8.539 -11.452,8.539c-4.77,-0.002 -7.381,-0.706 -9.54,-1.408" style="fill:#231f20;fill-rule:nonzero;"/></g></svg>