<?xml version="1.0" encoding="UTF-8" standalone="no"?><!DOCTYPE svg PUBLIC "-//W3C//DTD SVG 1.1//EN" "http://www.w3.org/Graphics/SVG/1.1/DTD/svg11.dtd"><svg width="100%" height="100%" viewBox="0 0 644 100" version="1.1" xmlns="http://www.w3.org/2000/svg" xmlns:xlink="http://www.w3.org/1999/xlink" xml:space="preserve" xmlns:serif="http://www.serif.com/" style="fill-rule:evenodd;clip-rule:evenodd;stroke-linejoin:round;stroke-miterlimit:1.41421;"><g><path d="M213.442,33.507l23.505,0l0,64.986l22.295,0l0,-64.986l23.381,0l0,-19.529l-69.181,0l0,19.529Z" style="fill:#010103;fill-rule:nonzero;"/><path d="M365.791,24.819c-3.995,-3.826 -8.811,-6.854 -14.314,-8.995c-5.504,-2.143 -11.531,-3.23 -17.91,-3.23c-6.464,0 -12.51,1.087 -17.971,3.231c-5.459,2.139 -10.274,5.165 -14.313,8.993c-4.037,3.829 -7.237,8.476 -9.507,13.813c-2.269,5.34 -3.42,11.286 -3.42,17.667c0,6.385 1.151,12.328 3.42,17.666c2.27,5.339 5.47,9.987 9.507,13.816c4.033,3.824 8.849,6.849 14.312,8.992c5.459,2.143 11.506,3.228 17.972,3.228c6.382,0 12.407,-1.085 17.91,-3.226c5.508,-2.148 10.324,-5.172 14.314,-8.996c3.996,-3.829 7.172,-8.478 9.441,-13.814c2.27,-5.337 3.421,-11.279 3.421,-17.666c0,-6.383 -1.151,-12.328 -3.421,-17.667c-2.269,-5.335 -5.446,-9.981 -9.441,-13.812Zm-22.997,53.545c-2.752,1.23 -5.858,1.855 -9.227,1.855c-3.454,0 -6.601,-0.625 -9.351,-1.855c-2.756,-1.233 -5.129,-2.941 -7.054,-5.072c-1.931,-2.135 -3.452,-4.679 -4.522,-7.558c-1.07,-2.88 -1.612,-6.056 -1.612,-9.436c0,-3.379 0.542,-6.553 1.612,-9.435c1.068,-2.878 2.59,-5.421 4.522,-7.559c1.929,-2.136 4.302,-3.841 7.054,-5.071c2.75,-1.233 5.895,-1.858 9.351,-1.858c3.371,0 6.475,0.625 9.227,1.858c2.749,1.23 5.123,2.938 7.052,5.071c1.931,2.138 3.453,4.681 4.522,7.559c1.07,2.888 1.613,6.061 1.613,9.435c0,3.375 -0.543,6.548 -1.613,9.436c-1.071,2.879 -2.592,5.423 -4.522,7.558c-1.926,2.131 -4.299,3.837 -7.052,5.072Z" style="fill:#010103;fill-rule:nonzero;"/><path d="M460.262,25.251c-4.028,-3.615 -8.882,-6.428 -14.423,-8.364c-5.535,-1.93 -11.695,-2.909 -18.305,-2.909l-35.479,0l0,84.514l35.604,0c6.536,0 12.652,-0.979 18.18,-2.909c5.539,-1.932 10.392,-4.767 14.424,-8.427c4.035,-3.664 7.23,-8.142 9.494,-13.313c2.27,-5.176 3.418,-11.122 3.418,-17.671c0,-6.55 -1.148,-12.494 -3.418,-17.67c-2.264,-5.171 -5.461,-9.629 -9.495,-13.251Zm-9.758,30.921c0,3.044 -0.523,5.985 -1.55,8.743c-1.029,2.755 -2.527,5.19 -4.455,7.242c-1.928,2.051 -4.344,3.716 -7.178,4.948c-2.834,1.234 -6.11,1.859 -9.733,1.859l-13.238,0l0,-45.456l13.363,0c3.792,0 7.154,0.584 9.993,1.733c2.828,1.15 5.217,2.77 7.105,4.819c1.886,2.05 3.321,4.464 4.267,7.173c0.947,2.719 1.426,5.726 1.426,8.939Z" style="fill:#010103;fill-rule:nonzero;"/><path d="M534.16,13.978l-27.618,0l-31.632,84.059l-0.172,0.456l25.24,0l4.147,-12.067l32.578,0l4.147,12.067l25.24,0l-31.848,-84.296l-0.082,-0.219Zm-3.595,52.919l-20.428,0l10.214,-30.162l10.214,30.162Z" style="fill:#010103;fill-rule:nonzero;"/><path d="M617.824,13.978l-17.783,30.591l-17.934,-30.424l-0.099,-0.167l-25.192,0l32.078,50.463l0,34.051l22.295,0l0,-34.051l31.952,-50.463l-25.317,0Z" style="fill:#010103;fill-rule:nonzero;"/><path d="M97.44,0.832c-52.119,0 -94.686,40.924 -97.312,92.39c-0.087,1.671 -0.128,3.353 -0.128,5.049l25.263,0c0,-1.645 0.056,-3.275 0.169,-4.891c2.517,-37.526 33.853,-67.287 72.008,-67.287c38.301,0 69.734,29.991 72.041,67.725c0.093,1.472 0.14,2.955 0.14,4.453l25.259,0c0,-1.34 -0.025,-2.674 -0.081,-3.997c-2.092,-51.962 -44.881,-93.442 -97.359,-93.442Z" style="fill:#f27123;fill-rule:nonzero;"/><path d="M97.44,33.313c-34.44,0 -62.614,26.8 -64.82,60.676c-0.095,1.416 -0.14,2.843 -0.14,4.282l25.264,0c0,-1.556 0.09,-3.087 0.265,-4.597c2.285,-19.729 19.098,-35.099 39.431,-35.099c20.442,0 37.325,15.528 39.467,35.404c0.159,1.413 0.232,2.839 0.232,4.292l25.26,0c0,-1.39 -0.042,-2.764 -0.126,-4.132c-2.13,-33.95 -30.341,-60.826 -64.833,-60.826Z" style="fill:#f27123;fill-rule:nonzero;"/><path d="M97.44,65.792c-15.834,0 -29.025,11.333 -31.895,26.33c-0.385,1.991 -0.584,4.045 -0.584,6.149l64.96,0c0,-1.569 -0.112,-3.111 -0.33,-4.619c-2.24,-15.752 -15.776,-27.86 -32.151,-27.86Z" style="fill:#f27123;fill-rule:nonzero;"/></g></svg>